<?xml version="1.0" encoding="UTF-8" standalone="no"?>
<svg width="190px" height="78px" viewBox="0 0 190 78" version="1.1" xmlns="http://www.w3.org/2000/svg" xmlns:xlink="http://www.w3.org/1999/xlink">
    <!-- Generator: Sketch 39.1 (31720) - http://www.bohemiancoding.com/sketch -->
    <title>VonArden Logo White</title>
    <desc>Created with Sketch.</desc>
    <defs>
        <path d="M10.4058956,14.1411668 C10.5918853,13.649579 10.8890119,13.64818 11.074822,14.1523563 L20.2247776,38.9798114 C20.4082257,39.477579 20.4058744,40.2751374 20.2146537,40.7739163 L11.2818865,64.0740816 C11.0928471,64.5671707 10.7775205,64.5747818 10.5723577,64.0784349 L0.988292839,40.8918785 C0.785470317,40.4011936 0.771985369,39.6044792 0.957814237,39.1133164 L10.4058956,14.1411668 L10.4058956,14.1411668 Z" id="path-1"></path>
        <mask id="mask-2" maskContentUnits="userSpaceOnUse" maskUnits="objectBoundingBox" x="-5" y="-5" width="29.5334122" height="60.6739693">
            <rect x="-4.17315673" y="8.77334098" width="29.5334122" height="60.6739693" fill="white"></rect>
            <use xlink:href="#path-1" fill="black"></use>
        </mask>
    </defs>
    <g id="Page-1" stroke="none" stroke-width="1" fill="none" fill-rule="evenodd">
        <g id="VonArden-Logo-White" transform="translate(5.000000, 0.000000)">
            <path d="M30.6162995,0.92 L37.2882995,23.24 L43.8642995,0.92 L53.7042995,0.92 L41.1762995,35 L33.4002995,35 L20.7282995,0.92 L30.6162995,0.92 Z M70.617754,35.288 C68.025741,35.288 65.6737645,34.792005 63.561754,33.8 C61.4497434,32.807995 59.6417615,31.5040081 58.137754,29.888 C56.6337465,28.2719919 55.4657581,26.4240104 54.633754,24.344 C53.8017498,22.2639896 53.385754,20.120011 53.385754,17.912 C53.385754,15.6719888 53.8177497,13.5120104 54.681754,11.432 C55.5457583,9.3519896 56.7537462,7.52000792 58.305754,5.936 C59.8577617,4.35199208 61.6977433,3.08800472 63.825754,2.144 C65.9537646,1.19999528 68.2817413,0.728 70.809754,0.728 C73.4017669,0.728 75.7537434,1.22399504 77.865754,2.216 C79.9777645,3.20800496 81.7857465,4.51999184 83.289754,6.152 C84.7937615,7.78400816 85.9537499,9.6399896 86.769754,11.72 C87.5857581,13.8000104 87.993754,15.9279891 87.993754,18.104 C87.993754,20.3440112 87.5617583,22.4959897 86.697754,24.56 C85.8337497,26.6240103 84.6337617,28.4479921 83.097754,30.032 C81.5617463,31.6160079 79.7297646,32.8879952 77.601754,33.848 C75.4737433,34.8080048 73.1457666,35.288 70.617754,35.288 L70.617754,35.288 Z M62.889754,18.008 C62.889754,19.1600058 63.0497524,20.2719946 63.369754,21.344 C63.6897556,22.4160054 64.1697508,23.3679958 64.809754,24.2 C65.4497572,25.0320042 66.2577491,25.7039974 67.233754,26.216 C68.2097589,26.7280026 69.3697473,26.984 70.713754,26.984 C72.0577607,26.984 73.225749,26.7200026 74.217754,26.192 C75.2097589,25.6639974 76.0177509,24.9760042 76.641754,24.128 C77.2657571,23.2799958 77.7297525,22.3120054 78.033754,21.224 C78.3377555,20.1359946 78.489754,19.0320056 78.489754,17.912 C78.489754,16.7599942 78.3297556,15.6480054 78.009754,14.576 C77.6897524,13.5039946 77.2017573,12.5600041 76.545754,11.744 C75.8897507,10.9279959 75.0737589,10.2720025 74.097754,9.776 C73.1217491,9.27999752 71.9777605,9.032 70.665754,9.032 C69.3217473,9.032 68.1617589,9.28799744 67.185754,9.8 C66.2097491,10.3120026 65.4017572,10.9919958 64.761754,11.84 C64.1217508,12.6880042 63.6497555,13.6479946 63.345754,14.72 C63.0417525,15.7920054 62.889754,16.8879944 62.889754,18.008 L62.889754,18.008 Z M101.643209,18.248 L101.643209,35 L92.2832085,35 L92.2832085,0.92 L99.5792085,0.92 L113.259209,18.248 L113.259209,0.92 L122.619209,0.92 L122.619209,35 L115.179209,35 L101.643209,18.248 Z M32.8722995,42.92 L41.4162995,42.92 L53.2242995,77 L43.7202995,77 L41.6562995,70.328 L32.5842995,70.328 L30.5682995,77 L21.0162995,77 L32.8722995,42.92 Z M40.1682995,64.088 L37.1442995,53.528 L33.9762995,64.088 L40.1682995,64.088 Z M56.361754,77 L56.361754,42.92 L72.009754,42.92 C73.6737623,42.92 75.2097469,43.2639966 76.617754,43.952 C78.025761,44.6400034 79.2337489,45.5359945 80.241754,46.64 C81.249759,47.7440055 82.0417511,49.0079929 82.617754,50.432 C83.1937569,51.8560071 83.481754,53.2879928 83.481754,54.728 C83.481754,56.7120099 83.0497583,58.5599914 82.185754,60.272 C81.3217497,61.9840086 80.1217617,63.3839946 78.585754,64.472 L85.785754,77 L75.225754,77 L69.225754,66.536 L65.721754,66.536 L65.721754,77 L56.361754,77 Z M65.721754,58.376 L71.625754,58.376 C72.2017569,58.376 72.7377515,58.0560032 73.233754,57.416 C73.7297565,56.7759968 73.977754,55.8800058 73.977754,54.728 C73.977754,53.5439941 73.6897569,52.6400031 73.113754,52.016 C72.5377511,51.3919969 71.9617569,51.08 71.385754,51.08 L65.721754,51.08 L65.721754,58.376 Z M89.0672085,77 L89.0672085,42.92 L102.171209,42.92 C104.987223,42.92 107.467198,43.3679955 109.611209,44.264 C111.755219,45.1600045 113.547201,46.3759923 114.987209,47.912 C116.427216,49.4480077 117.515205,51.2479897 118.251209,53.312 C118.987212,55.3760103 119.355209,57.5759883 119.355209,59.912 C119.355209,62.504013 118.947213,64.8479895 118.131209,66.944 C117.315204,69.0400105 116.155216,70.8319926 114.651209,72.32 C113.147201,73.8080074 111.339219,74.9599959 109.227209,75.776 C107.115198,76.5920041 104.763221,77 102.171209,77 L89.0672085,77 Z M109.851209,59.912 C109.851209,58.5999934 109.67521,57.4000054 109.323209,56.312 C108.971207,55.2239946 108.467212,54.2960038 107.811209,53.528 C107.155205,52.7599962 106.347213,52.1600022 105.387209,51.728 C104.427204,51.2959978 103.355214,51.08 102.171209,51.08 L98.4272085,51.08 L98.4272085,68.84 L102.171209,68.84 C103.387215,68.84 104.475204,68.6160022 105.435209,68.168 C106.395213,67.7199978 107.203205,67.096004 107.859209,66.296 C108.515212,65.495996 109.011207,64.5520054 109.347209,63.464 C109.68321,62.3759946 109.851209,61.1920064 109.851209,59.912 L109.851209,59.912 Z M148.028663,68.84 L148.028663,77 L123.740663,77 L123.740663,42.92 L147.596663,42.92 L147.596663,51.08 L133.100663,51.08 L133.100663,55.88 L145.484663,55.88 L145.484663,63.464 L133.100663,63.464 L133.100663,68.84 L148.028663,68.84 Z M162.062118,60.248 L162.062118,77 L152.702118,77 L152.702118,42.92 L159.998118,42.92 L173.678118,60.248 L173.678118,42.92 L183.038118,42.92 L183.038118,77 L175.598118,77 L162.062118,60.248 Z" id="Logo-Header" fill="#FFFFFF"></path>
            <g id="Diamond">
                <use fill="#FFFFFF" fill-rule="evenodd" xlink:href="#path-1"></use>
                <use stroke="#26C6DA" mask="url(#mask-2)" stroke-width="10" xlink:href="#path-1"></use>
            </g>
        </g>
    </g>
</svg>
